<svg xmlns="http://www.w3.org/2000/svg" version="1.1" xmlns:xlink="http://www.w3.org/1999/xlink" xmlns:svgjs="http://svgjs.dev/svgjs" viewBox="0 0 800 800">
    <defs>
        <linearGradient x1="50%" y1="0%" x2="50%" y2="100%" id="ffflurry-grad" gradientTransform="rotate(270)">
            <stop stop-color="hsl(238, 82%, 13%)" stop-opacity="1" offset="0%"></stop>
            <stop stop-color="hsl(1.4, 100%, 67%)" stop-opacity="1" offset="45%"></stop>
            <stop stop-color="hsl(167, 52%, 78%)" stop-opacity="1" offset="100%"></stop>
        </linearGradient>
    </defs>
    <rect width="100%" height="100%" fill="hsl(238, 82%, 13%)"></rect>
    <g fill="url(#ffflurry-grad)">
        <rect width="492" height="3" x="118" y="159.5" rx="1.5" transform="rotate(45, 364, 161)" opacity="0.95"></rect>
        <rect width="256" height="3" x="440" y="289.5" rx="1.5" transform="rotate(45, 568, 291)" opacity="0.67"></rect>
        <rect width="366" height="3" x="493" y="543.5" rx="1.5" transform="rotate(45, 676, 545)" opacity="0.43"></rect>
        <rect width="419" height="3" x="283.5" y="391.5" rx="1.5" transform="rotate(45, 493, 393)" opacity="0.77"></rect>
        <rect width="791" height="3" x="-56.5" y="621.5" rx="1.5" transform="rotate(45, 339, 623)" opacity="0.66"></rect>
        <rect width="146" height="3" x="478" y="731.5" rx="1.5" transform="rotate(45, 551, 733)" opacity="0.18"></rect>
        <rect width="305" height="3" x="593.5" y="57.5" rx="1.5" transform="rotate(45, 746, 59)" opacity="0.83"></rect>
        <rect width="486" height="3" x="493" y="756.5" rx="1.5" transform="rotate(45, 736, 758)" opacity="0.26"></rect>
        <rect width="424" height="3" x="164" y="391.5" rx="1.5" transform="rotate(45, 376, 393)" opacity="0.97"></rect>
        <rect width="288" height="3" x="28" y="389.5" rx="1.5" transform="rotate(45, 172, 391)" opacity="0.20"></rect>
        <rect width="278" height="3" x="614" y="360.5" rx="1.5" transform="rotate(45, 753, 362)" opacity="0.16"></rect>
        <rect width="647" height="3" x="123.5" y="121.5" rx="1.5" transform="rotate(45, 447, 123)" opacity="0.08"></rect>
        <rect width="184" height="3" x="-53" y="768.5" rx="1.5" transform="rotate(45, 39, 770)" opacity="0.31"></rect>
        <rect width="436" height="3" x="391" y="630.5" rx="1.5" transform="rotate(45, 609, 632)" opacity="0.87"></rect>
        <rect width="361" height="3" x="343.5" y="518.5" rx="1.5" transform="rotate(45, 524, 520)" opacity="0.79"></rect>
        <rect width="468" height="3" x="492" y="424.5" rx="1.5" transform="rotate(45, 726, 426)" opacity="0.22"></rect>
        <rect width="525" height="3" x="189.5" y="36.5" rx="1.5" transform="rotate(45, 452, 38)" opacity="0.21"></rect>
        <rect width="336" height="3" x="435" y="547.5" rx="1.5" transform="rotate(45, 603, 549)" opacity="0.57"></rect>
        <rect width="261" height="3" x="405.5" y="154.5" rx="1.5" transform="rotate(45, 536, 156)" opacity="0.74"></rect>
        <rect width="367" height="3" x="134.5" y="456.5" rx="1.5" transform="rotate(45, 318, 458)" opacity="0.48"></rect>
        <rect width="409" height="3" x="375.5" y="469.5" rx="1.5" transform="rotate(45, 580, 471)" opacity="0.59"></rect>
        <rect width="391" height="3" x="463.5" y="300.5" rx="1.5" transform="rotate(45, 659, 302)" opacity="0.63"></rect>
        <rect width="183" height="3" x="672.5" y="480.5" rx="1.5" transform="rotate(45, 764, 482)" opacity="0.53"></rect>
        <rect width="221" height="3" x="-80.5" y="626.5" rx="1.5" transform="rotate(45, 30, 628)" opacity="0.34"></rect>
        <rect width="276" height="3" x="631" y="283.5" rx="1.5" transform="rotate(45, 769, 285)" opacity="0.97"></rect>
        <rect width="173" height="3" x="676.5" y="171.5" rx="1.5" transform="rotate(45, 763, 173)" opacity="0.21"></rect>
        <rect width="370" height="3" x="41" y="653.5" rx="1.5" transform="rotate(45, 226, 655)" opacity="0.48"></rect>
        <rect width="419" height="3" x="49.5" y="100.5" rx="1.5" transform="rotate(45, 259, 102)" opacity="0.29"></rect>
        <rect width="546" height="3" x="42" y="735.5" rx="1.5" transform="rotate(45, 315, 737)" opacity="0.18"></rect>
        <rect width="285" height="3" x="304.5" y="471.5" rx="1.5" transform="rotate(45, 447, 473)" opacity="0.98"></rect>
        <rect width="534" height="3" x="-8" y="401.5" rx="1.5" transform="rotate(45, 259, 403)" opacity="0.43"></rect>
        <rect width="328" height="3" x="495" y="460.5" rx="1.5" transform="rotate(45, 659, 462)" opacity="0.86"></rect>
        <rect width="335" height="3" x="-44.5" y="703.5" rx="1.5" transform="rotate(45, 123, 705)" opacity="0.54"></rect>
        <rect width="674" height="3" x="45" y="530.5" rx="1.5" transform="rotate(45, 382, 532)" opacity="0.87"></rect>
        <rect width="44" height="3" x="133" y="616.5" rx="1.5" transform="rotate(45, 155, 618)" opacity="0.07"></rect>
        <rect width="473" height="3" x="-77.5" y="763.5" rx="1.5" transform="rotate(45, 159, 765)" opacity="0.58"></rect>
        <rect width="63" height="3" x="203.5" y="753.5" rx="1.5" transform="rotate(45, 235, 755)" opacity="0.27"></rect>
        <rect width="225" height="3" x="207.5" y="221.5" rx="1.5" transform="rotate(45, 320, 223)" opacity="0.56"></rect>
        <rect width="350" height="3" x="104" y="307.5" rx="1.5" transform="rotate(45, 279, 309)" opacity="0.96"></rect>
        <rect width="433" height="3" x="420.5" y="733.5" rx="1.5" transform="rotate(45, 637, 735)" opacity="0.68"></rect>
        <rect width="357" height="3" x="240.5" y="219.5" rx="1.5" transform="rotate(45, 419, 221)" opacity="0.24"></rect>
        <rect width="559" height="3" x="112.5" y="727.5" rx="1.5" transform="rotate(45, 392, 729)" opacity="0.67"></rect>
        <rect width="327" height="3" x="-68.5" y="772.5" rx="1.5" transform="rotate(45, 95, 774)" opacity="0.64"></rect>
        <rect width="442" height="3" x="-29" y="237.5" rx="1.5" transform="rotate(45, 192, 239)" opacity="0.84"></rect>
        <rect width="164" height="3" x="494" y="410.5" rx="1.5" transform="rotate(45, 576, 412)" opacity="0.48"></rect>
        <rect width="112" height="3" x="599" y="378.5" rx="1.5" transform="rotate(45, 655, 380)" opacity="0.92"></rect>
        <rect width="287" height="3" x="425.5" y="347.5" rx="1.5" transform="rotate(45, 569, 349)" opacity="0.43"></rect>
        <rect width="199" height="3" x="88.5" y="308.5" rx="1.5" transform="rotate(45, 188, 310)" opacity="0.57"></rect>
        <rect width="337" height="3" x="418.5" y="217.5" rx="1.5" transform="rotate(45, 587, 219)" opacity="0.94"></rect>
        <rect width="628" height="3" x="333" y="74.5" rx="1.5" transform="rotate(45, 647, 76)" opacity="0.93"></rect>
        <rect width="308" height="3" x="195" y="30.5" rx="1.5" transform="rotate(45, 349, 32)" opacity="0.48"></rect>
        <rect width="270" height="3" x="347" y="592.5" rx="1.5" transform="rotate(45, 482, 594)" opacity="0.96"></rect>
        <rect width="307" height="3" x="-102.5" y="275.5" rx="1.5" transform="rotate(45, 51, 277)" opacity="0.71"></rect>
        <rect width="189" height="3" x="64.5" y="55.5" rx="1.5" transform="rotate(45, 159, 57)" opacity="0.17"></rect>
        <rect width="466" height="3" x="22" y="540.5" rx="1.5" transform="rotate(45, 255, 542)" opacity="0.52"></rect>
        <rect width="221" height="3" x="-13.5" y="346.5" rx="1.5" transform="rotate(45, 97, 348)" opacity="0.93"></rect>
        <rect width="65" height="3" x="522.5" y="50.5" rx="1.5" transform="rotate(45, 555, 52)" opacity="0.30"></rect>
        <rect width="642" height="3" x="105" y="325.5" rx="1.5" transform="rotate(45, 426, 327)" opacity="0.94"></rect>
        <rect width="288" height="3" x="324" y="763.5" rx="1.5" transform="rotate(45, 468, 765)" opacity="0.21"></rect>
        <rect width="420" height="3" x="504" y="250.5" rx="1.5" transform="rotate(45, 714, 252)" opacity="0.28"></rect>
        <rect width="178" height="3" x="-42" y="429.5" rx="1.5" transform="rotate(45, 47, 431)" opacity="0.16"></rect>
        <rect width="54" height="3" x="30" y="52.5" rx="1.5" transform="rotate(45, 57, 54)" opacity="0.21"></rect>
        <rect width="436" height="3" x="523" y="663.5" rx="1.5" transform="rotate(45, 741, 665)" opacity="0.30"></rect>
        <rect width="81" height="3" x="205.5" y="31.5" rx="1.5" transform="rotate(45, 246, 33)" opacity="0.78"></rect>
        <rect width="407" height="3" x="261.5" y="668.5" rx="1.5" transform="rotate(45, 465, 670)" opacity="0.71"></rect>
        <rect width="538" height="3" x="479" y="570.5" rx="1.5" transform="rotate(45, 748, 572)" opacity="0.94"></rect>
        <rect width="611" height="3" x="-140.5" y="482.5" rx="1.5" transform="rotate(45, 165, 484)" opacity="0.75"></rect>
        <rect width="204" height="3" x="568" y="181.5" rx="1.5" transform="rotate(45, 670, 183)" opacity="0.26"></rect>
        <rect width="306" height="3" x="198" y="288.5" rx="1.5" transform="rotate(45, 351, 290)" opacity="0.52"></rect>
        <rect width="239" height="3" x="146.5" y="174.5" rx="1.5" transform="rotate(45, 266, 176)" opacity="0.23"></rect>
        <rect width="375" height="3" x="-150.5" y="708.5" rx="1.5" transform="rotate(45, 37, 710)" opacity="0.80"></rect>
        <rect width="77" height="3" x="58.5" y="601.5" rx="1.5" transform="rotate(45, 97, 603)" opacity="0.56"></rect>
        <rect width="343" height="3" x="318.5" y="258.5" rx="1.5" transform="rotate(45, 490, 260)" opacity="0.21"></rect>
        <rect width="441" height="3" x="-159.5" y="527.5" rx="1.5" transform="rotate(45, 61, 529)" opacity="0.45"></rect>
        <rect width="301" height="3" x="12.5" y="157.5" rx="1.5" transform="rotate(45, 163, 159)" opacity="0.51"></rect>
        <rect width="658" height="3" x="-272" y="164.5" rx="1.5" transform="rotate(45, 57, 166)" opacity="0.27"></rect>
        <rect width="395" height="3" x="150.5" y="96.5" rx="1.5" transform="rotate(45, 348, 98)" opacity="0.87"></rect>
    </g>
</svg>